<svg width="54" height="53" viewBox="0 0 54 53" fill="none" xmlns="http://www.w3.org/2000/svg">
<rect width="54" height="53" rx="26.5" fill="#0D57DD"/>
<path d="M27 26.5C30.4719 26.5 33.2857 23.7021 33.2857 20.25C33.2857 16.7979 30.4719 14 27 14C23.5281 14 20.7143 16.7979 20.7143 20.25C20.7143 23.7021 23.5281 26.5 27 26.5ZM31.4 28.0625H30.5799C29.4897 28.5605 28.2768 28.8438 27 28.8438C25.7232 28.8438 24.5152 28.5605 23.4201 28.0625H22.6C18.9562 28.0625 16 31.002 16 34.625V36.6562C16 37.9502 17.0558 39 18.3571 39H35.6429C36.9442 39 38 37.9502 38 36.6562V34.625C38 31.002 35.0437 28.0625 31.4 28.0625Z" fill="white"/>
</svg>
